<svg xmlns="http://www.w3.org/2000/svg" viewBox="0 0 64 64" width="64" height="64">
  
  <rect x="2" y="2" width="60" height="60" rx="16" fill="#FF6E5A" stroke="#1A1626" stroke-width="3"></rect>
  
  <circle cx="50" cy="16" r="13" fill="#FFFFFF" opacity="0.14"></circle>
  
  <line x1="32" y1="17" x2="32" y2="9" stroke="#1A1626" stroke-width="3" stroke-linecap="round"></line>
  <circle cx="32" cy="7" r="3.4" fill="#FFD56B" stroke="#1A1626" stroke-width="2"></circle>
  
  <path d="M14,36 C14,24 21,18 32,18 C43,18 50,24 50,36 C50,47 44,53 32,53 C20,53 14,47 14,36 Z" fill="#FFD56B" stroke="#1A1626" stroke-width="3"></path>
  
  <circle cx="25" cy="34" r="3.2" fill="#1A1626"></circle>
  <circle cx="39" cy="34" r="3.2" fill="#1A1626"></circle>
  <circle cx="26.1" cy="32.9" r="1" fill="#FFFFFF"></circle>
  <circle cx="40.1" cy="32.9" r="1" fill="#FFFFFF"></circle>
  
  <path d="M25,42 Q32,48 39,42" fill="none" stroke="#1A1626" stroke-width="3" stroke-linecap="round"></path>
  
  <circle cx="19.5" cy="40" r="2.6" fill="#FF6E5A" opacity="0.55"></circle>
  <circle cx="44.5" cy="40" r="2.6" fill="#FF6E5A" opacity="0.55"></circle>
</svg>